<?xml version="1.0" encoding="utf-8"?>
<!-- Generator: Adobe Illustrator 28.0.0, SVG Export Plug-In . SVG Version: 6.00 Build 0)  -->
<svg version="1.1" id="Layer_1" xmlns="http://www.w3.org/2000/svg" xmlns:xlink="http://www.w3.org/1999/xlink" x="0px" y="0px"
	 viewBox="0 0 561.6 646.2" style="enable-background:new 0 0 561.6 646.2;" xml:space="preserve">
<style type="text/css">
	.st0{fill-rule:evenodd;clip-rule:evenodd;fill:#121212;}
	.st1{fill:#121212;}
</style>
<path class="st0" d="M536.9,498.3c5.8,74.7,5.8,109.7,5.8,147.9H369.9c0-8.3,0.1-15.9,0.3-23.7c0.5-24,1-49-2.9-99.6
	c-5.1-74-37-90.4-95.6-90.4h-51.9H0V298h279.9c74,0,111-22.5,111-82.1c0-52.4-37-84.2-111-84.2H0V0h310.8
	c167.5,0,250.8,79.1,250.8,205.5c0,94.5-58.6,156.2-137.7,166.5C490.6,385.3,529.7,423.3,536.9,498.3z"/>
<path class="st1" d="M0,646.2V545.9h182.7c30.5,0,37.1,22.6,37.1,36.1v64.2H0z"/>
</svg>
