<?xml version="1.0" encoding="utf-8"?>
<!-- Generator: Adobe Illustrator 28.0.0, SVG Export Plug-In . SVG Version: 6.00 Build 0)  -->
<svg version="1.1" id="Layer_1" xmlns="http://www.w3.org/2000/svg" xmlns:xlink="http://www.w3.org/1999/xlink" x="0px" y="0px"
	 viewBox="0 0 1201 301.7" style="enable-background:new 0 0 1201 301.7;" xml:space="preserve">
<style type="text/css">
	.st0{fill-rule:evenodd;clip-rule:evenodd;fill:#121212;}
	.st1{fill:#121212;}
</style>
<path class="st0" d="M244.6,228.8c2.6,34.3,2.6,50.4,2.6,67.9h-78.7c0-3.8,0.1-7.3,0.1-10.9c0.2-11,0.4-22.5-1.3-45.7
	c-2.3-34-16.9-41.5-43.6-41.5h-23.6H0v-61.8h127.6c33.7,0,50.6-10.3,50.6-37.7c0-24.1-16.9-38.6-50.6-38.6H0V0h141.6
	c76.3,0,114.3,36.3,114.3,94.4c0,43.4-26.7,71.7-62.8,76.4C223.6,176.9,241.3,194.4,244.6,228.8z"/>
<path class="st1" d="M0,296v-46.1h83.2c13.9,0,16.9,10.4,16.9,16.6V296H0z"/>
<path class="st1" d="M1194.5,87.8h-78l-35.5,49.9l-34.6-49.9h-83.6l75.2,103.1l-81.8,106.8h78l41.6-57l41.6,57h83.6l-82.2-110.1
	L1194.5,87.8z"/>
<path class="st1" d="M703,123.6c-8.9-24.5-28-41.4-64.9-41.4c-31.3,0-53.7,14.1-64.9,37.2V87.8h-75.7v209.9h75.7V194.6
	c0-31.5,8.9-52.2,33.6-52.2c22.9,0,28.5,15.1,28.5,43.8v111.6H711V194.6c0-31.5,8.4-52.2,33.6-52.2c22.9,0,28,15.1,28,43.8v111.6
	h75.7V165.9c0-43.8-16.8-83.8-74.3-83.8C739,82.1,714.3,100,703,123.6z"/>
<path class="st1" d="M418.7,221.2c-7,16.5-20.1,23.5-40.6,23.5c-22.9,0-41.6-12.2-43.4-38.1h146.2v-21.2c0-57-36.9-105-106.5-105
	c-64.9,0-113.5,47.5-113.5,113.9c0,66.8,47.7,107.3,114.5,107.3c55.1,0,93.4-26.8,104.2-74.8L418.7,221.2z M335.5,169.9
	c2.8-19.8,13.5-34.8,37.8-34.8c22.4,0,34.6,16,35.5,34.8H335.5z"/>
<path class="st1" d="M873.1,87.8v209.9h75.7V87.8H873.1z M872.6,68h76.6V1.2h-76.6V68z"/>
</svg>
